<svg xmlns="http://www.w3.org/2000/svg" width="325" height="582" viewBox="0 0 325 582"><g><g><path fill="#f7f7f7" d="M-.016 88.097c0-29.1 6.329-51.053 19-65.882C31.644 7.4 52.263-.015 80.84-.015c28.565 0 49.183 7.414 61.855 22.23 12.659 14.83 19 36.782 19 65.882V493.09c0 29.102-6.341 51.206-19 66.287-12.672 15.082-33.29 22.634-61.855 22.634-28.577 0-49.195-7.552-61.855-22.634-12.671-15.08-19-37.185-19-66.287zM32.326 493.09c0 18.87 3.764 33.283 11.32 43.248 7.542 9.98 19.936 14.955 37.193 14.955 17.245 0 29.639-4.976 37.193-14.955 7.543-9.965 11.32-24.377 11.32-43.248V88.097c0-18.858-3.777-33.143-11.32-42.842-7.554-9.702-19.948-14.552-37.193-14.552-17.257 0-29.651 4.85-37.193 14.552-7.556 9.7-11.32 23.984-11.32 42.842zM221.517 73.547h6.47c22.639 0 39.074-5.116 49.32-15.36 10.234-10.23 15.363-26.675 15.363-49.31V8.07h32.342v565.859H292.67V104.265h-71.153z"/></g></g></svg>