<svg xmlns="http://www.w3.org/2000/svg" width="375" height="572" viewBox="0 0 375 572"><g><g><path fill="#f7f7f7" d="M.483 86.82c0-28.568 6.213-50.12 18.65-64.676C31.557 7.599 51.793.32 79.84.32c28.036 0 48.272 7.28 60.71 21.824 12.423 14.557 18.648 36.108 18.648 64.677v397.581c0 28.57-6.225 50.268-18.649 65.073-12.437 14.806-32.673 22.221-60.709 22.221-28.048 0-48.284-7.415-60.708-22.22C6.696 534.67.483 512.97.483 484.401zm31.744 397.582c0 18.525 3.695 32.674 11.11 42.457 7.402 9.795 19.567 14.68 36.504 14.68 16.926 0 29.09-4.885 36.506-14.68 7.402-9.783 11.109-23.932 11.109-42.457V86.821c0-18.513-3.707-32.537-11.11-42.06-7.415-9.523-19.58-14.284-36.505-14.284-16.937 0-29.102 4.761-36.504 14.283-7.415 9.524-11.11 23.548-11.11 42.06zm183.307 47.615c0-35.971 6.61-70.889 19.839-104.752 13.218-33.852 27.775-67.715 43.646-101.578 15.872-33.851 30.417-67.715 43.647-101.578 13.219-33.85 19.84-68.768 19.84-104.752V86.821c0-18.513-3.708-32.537-11.11-42.06-7.416-9.523-19.579-14.284-36.505-14.284-16.938 0-29.102 4.761-36.505 14.283-7.414 9.524-11.11 23.548-11.11 42.06v80.151h-31.742v-80.15c0-28.57 6.211-50.12 18.649-64.677C246.607 7.599 266.843.32 294.89.32c28.036 0 48.272 7.28 60.709 21.824 12.425 14.557 18.65 36.108 18.65 64.677v32.536c0 35.984-6.623 70.901-19.84 104.752-13.23 33.863-27.775 67.727-43.647 101.578-15.872 33.863-30.43 67.726-43.647 101.578-13.23 33.863-19.84 68.78-19.84 104.752v.794H374.25v30.95H215.534z"/></g></g></svg>